<svg width="24" height="24" viewBox="0 0 24 24" fill="none" xmlns="http://www.w3.org/2000/svg">
<path d="M12 1.60001C11.5757 1.60001 11.1687 1.69913 10.8687 1.87556C10.5686 2.05199 10.4 2.29129 10.4 2.54081C10.4 2.79032 10.5686 3.02962 10.8687 3.20605C11.1687 3.38249 11.5757 3.48161 12 3.48161C12.4244 3.48161 12.8313 3.38249 13.1314 3.20605C13.4315 3.02962 13.6 2.79032 13.6 2.54081C13.6 2.29129 13.4315 2.05199 13.1314 1.87556C12.8313 1.69913 12.4244 1.60001 12 1.60001Z" fill="#7C7E8F"/>
<path d="M3.20001 12.8C3.20001 12.8 3.20001 13.5136 3.20001 14.4C3.20001 17.0808 4.69201 20 6.40001 20C8.02881 20 8.67521 19.2 12 19.2C15.3248 19.2 15.9712 20 17.6 20C19.308 20 20.8 17.0808 20.8 14.4C20.8 13.5136 20.8 12.8 20.8 12.8" stroke="#7C7E8F" stroke-width="2" stroke-miterlimit="10" stroke-linecap="round" stroke-linejoin="round"/>
<path d="M12 2.39999C6.91202 2.39999 2.40002 4.99199 2.40002 11.424C2.40002 11.424 2.40002 13.024 2.40002 13.6C2.40002 13.6 6.72002 14.4 12 14.4C17.28 14.4 21.6 13.6 21.6 13.6C21.6 13.024 21.6 11.424 21.6 11.424C21.6 4.99199 17.088 2.39999 12 2.39999ZM12.8 12.0112V12.8H11.2V12.0176C10.0848 11.8056 9.40162 11.1344 9.38082 10.1456H10.8976C10.9368 10.6008 11.3912 10.8912 12.0496 10.8912C12.6432 10.8912 13.0512 10.6048 13.0512 10.1928C13.0512 9.84639 12.7776 9.65999 12.0632 9.51679L11.24 9.35199C10.096 9.13519 9.50642 8.51119 9.50642 7.52799C9.50642 6.53839 10.156 5.83279 11.2008 5.59679V4.79999H12.8008V5.60239C13.8152 5.84079 14.4776 6.52639 14.4984 7.45439H13.0296C12.9952 7.01279 12.5752 6.70479 12.0152 6.70479C11.4552 6.70479 11.088 6.96959 11.088 7.38559C11.088 7.72799 11.3656 7.92719 12.024 8.05679L12.8304 8.21279C14.0656 8.45119 14.62 9.01039 14.62 10.0024C14.6192 11.0712 13.9424 11.7848 12.8 12.0112Z" fill="#7C7E8F"/>
</svg>
