<svg width="24" height="24" viewBox="0 0 24 24" fill="none" xmlns="http://www.w3.org/2000/svg">
<g clip-path="url(#clip0)">
<path fill-rule="evenodd" clip-rule="evenodd" d="M5.1045 11.7038C5.41537 12.0178 5.41285 12.5243 5.09888 12.8352C5.04271 12.8908 4.92928 13.0035 4.80001 13.1329V14.4027C4.80001 15.156 5.08802 15.5417 5.32682 15.7506C5.45666 15.8642 5.58732 15.9377 5.68334 15.9817C5.7307 16.0034 5.76746 16.0169 5.7883 16.024C5.79536 16.0264 5.80047 16.028 5.8034 16.0289L6.22009 16.1331L6.35831 16.5478L6.3584 16.548L6.35859 16.5486L6.35996 16.5525C6.36183 16.5579 6.36525 16.5675 6.37025 16.5812C6.38027 16.6085 6.39663 16.6518 6.41969 16.7088C6.46587 16.8229 6.53857 16.9909 6.64055 17.1949C6.84543 17.6047 7.1635 18.1492 7.61459 18.6905C8.51183 19.7672 9.90489 20.8027 12 20.8027C14.0951 20.8027 15.4882 19.7672 16.3854 18.6905C16.8365 18.1492 17.1546 17.6047 17.3595 17.1949C17.4615 16.9909 17.5342 16.8229 17.5803 16.7088C17.6034 16.6518 17.6198 16.6085 17.6298 16.5812C17.6348 16.5675 17.6382 16.5579 17.6401 16.5525L17.6413 16.5491L17.6414 16.5486L17.6416 16.548L17.7799 16.1331L18.1966 16.0289C18.1996 16.028 18.2047 16.0264 18.2117 16.024C18.2326 16.0169 18.2693 16.0034 18.3167 15.9817C18.4127 15.9377 18.5434 15.8642 18.6732 15.7506C18.912 15.5417 19.2 15.156 19.2 14.4027V12.8027C19.2 12.3608 19.5582 12.0027 20 12.0027C20.4418 12.0027 20.8 12.3608 20.8 12.8027V14.4027C20.8 15.6493 20.288 16.4637 19.7268 16.9547C19.4714 17.1782 19.2167 17.3259 19.0173 17.4203C18.9604 17.5546 18.8853 17.7209 18.7906 17.9104C18.5454 18.4007 18.1635 19.0561 17.6146 19.7148C16.5118 21.0381 14.7049 22.4027 12 22.4027C9.29514 22.4027 7.4882 21.0381 6.38544 19.7148C5.83652 19.0561 5.4546 18.4007 5.20947 17.9104C5.11471 17.7209 5.03965 17.5546 4.98271 17.4203C4.78329 17.3259 4.52862 17.1782 4.27321 16.9547C3.712 16.4637 3.20001 15.6493 3.20001 14.4027V12.4736L3.43152 12.2398C3.64728 12.0219 3.88215 11.7883 3.97315 11.6982C4.28712 11.3873 4.79364 11.3898 5.1045 11.7038Z" fill="#7C7E8F"/>
<path d="M3.20001 13.6H5.60001C5.60001 11.5984 5.60001 10.4 5.60001 10.4L3.20001 9.59999V13.6ZM18.4 13.6H20.8V10.4H18.4V13.6ZM12 0.799988C5.60001 0.799988 3.20001 1.59999 3.20001 9.59999H20.8C20.8 1.59999 18.4 0.799988 12 0.799988ZM12 7.99999H7.20001C6.75841 7.99999 6.40001 7.64159 6.40001 7.19999C6.40001 6.75839 6.75841 6.39999 7.20001 6.39999H12C12.4416 6.39999 12.8 6.75839 12.8 7.19999C12.8 7.64159 12.4416 7.99999 12 7.99999Z" fill="#7C7E8F"/>
<path fill-rule="evenodd" clip-rule="evenodd" d="M3.20001 9.59999C3.20001 9.15816 3.55818 8.79999 4.00001 8.79999H23.2C23.6418 8.79999 24 9.15816 24 9.59999C24 10.0418 23.6418 10.4 23.2 10.4H4.00001C3.55818 10.4 3.20001 10.0418 3.20001 9.59999Z" fill="#7C7E8F"/>
<path d="M9.60002 16H8.80002C7.47442 16 6.40002 14.9256 6.40002 13.6V12.8C6.40002 12.3584 6.75842 12 7.20002 12H10.4C10.8416 12 11.2 12.3584 11.2 12.8V14.4C11.2 15.284 10.484 16 9.60002 16ZM12.8 14.4V12.8C12.8 12.3584 13.1584 12 13.6 12H16.8C17.2416 12 17.6 12.3584 17.6 12.8V13.6C17.6 14.9256 16.5256 16 15.2 16H14.4C13.516 16 12.8 15.284 12.8 14.4Z" fill="#7C7E8F"/>
<path fill-rule="evenodd" clip-rule="evenodd" d="M11.4176 18.4C10.7004 18.4 10.0713 18.8763 9.87727 19.5662L9.56998 20.6569C9.45017 21.0822 9.00829 21.3298 8.58302 21.21C8.15775 21.0902 7.91012 20.6483 8.02994 20.223L8.33705 19.133C8.33706 19.1329 8.33704 19.133 8.33705 19.133C8.33707 19.1329 8.33712 19.1327 8.33714 19.1326C8.72558 17.7523 9.9844 16.8 11.4176 16.8H12.5832C14.0169 16.8 15.2744 17.7528 15.6635 19.1324L15.9701 20.2236C16.0897 20.6489 15.8417 21.0906 15.4164 21.2102C14.991 21.3297 14.5493 21.0818 14.4298 20.6564L14.1236 19.5668C14.1236 19.5667 14.1235 19.5665 14.1235 19.5664C13.9285 18.8758 13.2997 18.4 12.5832 18.4H11.4176Z" fill="#7C7E8F"/>
<path fill-rule="evenodd" clip-rule="evenodd" d="M12 19.2C12.4418 19.2 12.8 19.5582 12.8 20V21.6C12.8 22.0418 12.4418 22.4 12 22.4C11.5582 22.4 11.2 22.0418 11.2 21.6V20C11.2 19.5582 11.5582 19.2 12 19.2Z" fill="#7C7E8F"/>
</g>
<defs>
<clipPath id="clip0">
<rect width="24" height="24" fill="white"/>
</clipPath>
</defs>
</svg>
