<svg width="24" height="24" viewBox="0 0 24 24" fill="none" xmlns="http://www.w3.org/2000/svg">
<path d="M12 19.2C11.5757 19.2 11.1687 19.3686 10.8687 19.6686C10.5686 19.9687 10.4 20.3757 10.4 20.8C10.4 21.2244 10.5686 21.6313 10.8687 21.9314C11.1687 22.2314 11.5757 22.4 12 22.4C12.4244 22.4 12.8313 22.2314 13.1314 21.9314C13.4315 21.6313 13.6 21.2244 13.6 20.8C13.6 20.3757 13.4315 19.9687 13.1314 19.6686C12.8313 19.3686 12.4244 19.2 12 19.2Z" fill="#7C7E8F"/>
<path d="M20 9.59998V20C20 20 17.6 19.2 16 19.2C14.4 19.2 12 20 12 20C12 20 9.60002 19.2 8.00002 19.2C6.40002 19.2 4.00002 20 4.00002 20V9.59998C3.11602 9.59998 2.40002 10.316 2.40002 11.2V20C2.40002 20.884 3.11602 21.6 4.00002 21.6H20C20.884 21.6 21.6 20.884 21.6 20V11.2C21.6 10.316 20.884 9.59998 20 9.59998Z" fill="#7C7E8F"/>
<path fill-rule="evenodd" clip-rule="evenodd" d="M11.747 0.841041C11.9112 0.786303 12.0888 0.786303 12.253 0.841041L21.853 4.04104C22.2721 4.18076 22.4987 4.63382 22.359 5.05297C22.2192 5.47212 21.7662 5.69865 21.347 5.55893L12 2.44326L2.65299 5.55893C2.23384 5.69865 1.78078 5.47212 1.64106 5.05297C1.50134 4.63382 1.72787 4.18076 2.14703 4.04104L11.747 0.841041Z" fill="#7C7E8F"/>
<path fill-rule="evenodd" clip-rule="evenodd" d="M3.76836 8.00919C5.03688 7.62543 6.51899 7.20001 8.00001 7.20001C8.91014 7.20001 9.99458 7.43727 10.8061 7.65369C11.2216 7.76448 11.5845 7.87508 11.8438 7.95807C11.901 7.97637 11.9532 7.99335 12 8.00874C12.0468 7.99335 12.099 7.97637 12.1562 7.95807C12.4155 7.87508 12.7784 7.76448 13.1939 7.65369C14.0054 7.43727 15.0899 7.20001 16 7.20001C16.9033 7.20001 17.9828 7.42108 18.794 7.6239C19.2087 7.72757 19.571 7.83108 19.8299 7.90875C19.9595 7.94765 20.0638 7.98022 20.1363 8.0033C20.1726 8.01484 20.201 8.02402 20.2207 8.03044L20.2436 8.03797L20.2501 8.04009L20.2526 8.04093C20.2527 8.04096 20.253 8.04107 20 8.80001L20.253 8.04107C20.5797 8.14996 20.8 8.45567 20.8 8.80001V20C20.8 20.4418 20.4418 20.8 20 20.8C19.5582 20.8 19.2 20.4418 19.2 20V9.39102C18.9802 9.32707 18.7077 9.25155 18.406 9.17613C17.6173 8.97895 16.6967 8.80001 16 8.80001C15.3101 8.80001 14.3946 8.98942 13.6061 9.19967C13.2988 9.28163 13.0217 9.36371 12.8 9.43268V19.8667C12.8 20.3085 12.4418 20.6667 12 20.6667C11.5582 20.6667 11.2 20.3085 11.2 19.8667V9.43268C10.9783 9.36371 10.7012 9.28163 10.3939 9.19967C9.60544 8.98942 8.68989 8.80001 8.00001 8.80001C6.96592 8.80001 5.89094 9.05552 4.80001 9.37179V20C4.80001 20.4418 4.44184 20.8 4.00001 20.8C3.55818 20.8 3.20001 20.4418 3.20001 20V8.77492C3.20001 8.42231 3.43087 8.11129 3.76836 8.00919Z" fill="#7C7E8F"/>
<path fill-rule="evenodd" clip-rule="evenodd" d="M4.00005 20L3.74706 19.2411C3.32791 19.3808 3.10138 19.8338 3.2411 20.253C3.3808 20.6721 3.83379 20.8986 4.25291 20.759L4.25754 20.7575L4.27541 20.7516C4.29165 20.7463 4.31639 20.7383 4.34886 20.728C4.41383 20.7073 4.50958 20.6774 4.62992 20.6413C4.87101 20.569 5.20876 20.4725 5.59407 20.3761C6.38279 20.179 7.30335 20 8.00005 20C8.71386 20 9.64714 20.152 10.4369 20.3165C10.8243 20.3973 11.1638 20.4781 11.406 20.5386C11.527 20.5689 11.6233 20.594 11.6888 20.6113C11.7215 20.62 11.7465 20.6267 11.7629 20.6312L11.7811 20.6362L11.7852 20.6373L11.7859 20.6375C11.7859 20.6375 11.786 20.6375 11.7859 20.6375C11.926 20.6764 12.074 20.6764 12.2141 20.6375C12.214 20.6375 12.2141 20.6375 12.2141 20.6375L12.2149 20.6373L12.219 20.6362L12.2372 20.6312C12.2536 20.6267 12.2786 20.62 12.3113 20.6113C12.3768 20.594 12.4731 20.5689 12.5941 20.5386C12.8363 20.4781 13.1758 20.3973 13.5632 20.3165C14.3529 20.152 15.2862 20 16 20C16.6967 20 17.6173 20.179 18.406 20.3761C18.7913 20.4725 19.1291 20.569 19.3702 20.6413C19.4905 20.6774 19.5863 20.7073 19.6512 20.728C19.6837 20.7383 19.7084 20.7463 19.7247 20.7516L19.7426 20.7575L19.7471 20.759C20.1662 20.8986 20.6193 20.6721 20.759 20.253C20.8987 19.8338 20.6722 19.3808 20.253 19.2411L20.0031 19.9908C20.253 19.2411 20.2531 19.2411 20.253 19.2411L20.2501 19.2401L20.2437 19.238L20.2207 19.2305C20.201 19.224 20.1726 19.2149 20.1364 19.2033C20.0638 19.1802 19.9596 19.1477 19.8299 19.1088C19.571 19.0311 19.2088 18.9276 18.7941 18.8239C17.9828 18.6211 16.9033 18.4 16 18.4C15.1139 18.4 14.0471 18.5814 13.2369 18.7502C12.8243 18.8361 12.4638 18.922 12.206 18.9864C12.1275 19.006 12.0584 19.0237 12 19.0389C11.9417 19.0237 11.8726 19.006 11.7941 18.9864C11.5363 18.922 11.1758 18.8361 10.7632 18.7502C9.95295 18.5814 8.88624 18.4 8.00005 18.4C7.09675 18.4 6.0173 18.6211 5.20602 18.8239C4.79133 18.9276 4.42909 19.0311 4.17017 19.1088C4.04051 19.1477 3.93627 19.1802 3.86373 19.2033C3.82745 19.2149 3.79907 19.224 3.77937 19.2305L3.75642 19.238L3.75001 19.2401L3.74747 19.2409C3.74738 19.241 3.74706 19.2411 4.00005 20Z" fill="#7C7E8F"/>
</svg>
