<svg width="24" height="24" viewBox="0 0 24 24" fill="none" xmlns="http://www.w3.org/2000/svg">
<path d="M16.8 12.8H18.4V10.4H16.664C16.748 11.1152 16.8 11.9112 16.8 12.8ZM5.6 10.4C5.6 12.7144 5.6 12.8 5.6 12.8H7.2C7.2 11.648 7.508 10.9064 8.0128 10.4H5.6Z" fill="#7C7E8F"/>
<path fill-rule="evenodd" clip-rule="evenodd" d="M4 12.8C4 11.9166 4.71657 11.2 5.6 11.2H6.4C6.84183 11.2 7.2 11.5582 7.2 12C7.2 12.4418 6.84183 12.8 6.4 12.8H5.6V13.6C5.6 14.3533 5.88801 14.739 6.1268 14.9479C6.25664 15.0615 6.38731 15.135 6.48332 15.179C6.53069 15.2007 6.56745 15.2142 6.58829 15.2213C6.59535 15.2237 6.60046 15.2253 6.60339 15.2262L7.10289 15.3511L7.18876 15.8663L7.1894 15.8699C7.19029 15.8748 7.192 15.8839 7.19462 15.897C7.19987 15.9232 7.20875 15.9653 7.222 16.0209C7.24853 16.1324 7.2923 16.2971 7.35895 16.497C7.49309 16.8995 7.71523 17.4306 8.06564 17.9562C8.75166 18.9853 9.92405 20 12 20C14.0759 20 15.2483 18.9853 15.9344 17.9562C16.2848 17.4306 16.5069 16.8995 16.6411 16.497C16.7077 16.2971 16.7515 16.1324 16.778 16.0209C16.7913 15.9653 16.8001 15.9232 16.8054 15.897C16.808 15.8839 16.8097 15.8748 16.8106 15.8699L16.8111 15.8672L16.8112 15.8663L16.8113 15.8659L16.8971 15.3511L17.3966 15.2262C17.3995 15.2253 17.4046 15.2237 17.4117 15.2213C17.4326 15.2142 17.4693 15.2007 17.5167 15.179C17.6127 15.135 17.7434 15.0615 17.8732 14.9479C18.112 14.739 18.4 14.3533 18.4 13.6V12.8H17.6C17.1582 12.8 16.8 12.4418 16.8 12C16.8 11.5582 17.1582 11.2 17.6 11.2H18.4C19.2834 11.2 20 11.9166 20 12.8V13.6C20 14.8467 19.488 15.661 18.9268 16.1521C18.6996 16.3508 18.4731 16.4896 18.2854 16.5843C18.2528 16.7051 18.2112 16.8462 18.1589 17.003C17.9931 17.5005 17.7152 18.1694 17.2656 18.8437C16.3517 20.2147 14.7241 21.6 12 21.6C9.27595 21.6 7.64834 20.2147 6.73436 18.8437C6.28477 18.1694 6.00691 17.5005 5.84105 17.003C5.7888 16.8462 5.7472 16.7051 5.71458 16.5843C5.52694 16.4896 5.30036 16.3508 5.0732 16.1521C4.51199 15.661 4 14.8467 4 13.6V12.8Z" fill="#7C7E8F"/>
<path d="M23.2 7.19999C22.9878 7.19999 22.7843 7.28427 22.6343 7.4343C22.4843 7.58433 22.4 7.78782 22.4 7.99999C22.4 8.21216 22.4843 8.41564 22.6343 8.56567C22.7843 8.7157 22.9878 8.79999 23.2 8.79999C23.4122 8.79999 23.6157 8.7157 23.7657 8.56567C23.9157 8.41564 24 8.21216 24 7.99999C24 7.78782 23.9157 7.58433 23.7657 7.4343C23.6157 7.28427 23.4122 7.19999 23.2 7.19999ZM0.8 7.19999C0.587827 7.19999 0.384344 7.28427 0.234315 7.4343C0.0842855 7.58433 0 7.78782 0 7.99999C0 8.21216 0.0842855 8.41564 0.234315 8.56567C0.384344 8.7157 0.587827 8.79999 0.8 8.79999C1.01217 8.79999 1.21566 8.7157 1.36569 8.56567C1.51571 8.41564 1.6 8.21216 1.6 7.99999C1.6 7.78782 1.51571 7.58433 1.36569 7.4343C1.21566 7.28427 1.01217 7.19999 0.8 7.19999ZM12 0.799988C11.7878 0.799988 11.5843 0.884273 11.4343 1.0343C11.2843 1.18433 11.2 1.38781 11.2 1.59999C11.2 1.81216 11.2843 2.01564 11.4343 2.16567C11.5843 2.3157 11.7878 2.39999 12 2.39999C12.2122 2.39999 12.4157 2.3157 12.5657 2.16567C12.7157 2.01564 12.8 1.81216 12.8 1.59999C12.8 1.38781 12.7157 1.18433 12.5657 1.0343C12.4157 0.884273 12.2122 0.799988 12 0.799988Z" fill="#7C7E8F"/>
<path d="M12.4 0.899988L12 1.59999L11.6 0.899988L0.4 7.29999L0.5488 8.75999L4 10.192V8.62159C4 8.08639 4.2672 7.58719 4.7128 7.29039C4.972 7.11759 7.3824 5.59999 12 5.59999C16.6176 5.59999 19.028 7.11759 19.2872 7.29119C19.7328 7.58799 20 8.08719 20 8.62239V10.1928L23.4512 8.75999L23.6 7.29999L12.4 0.899988Z" fill="#7C7E8F"/>
<path d="M12 7.19999C7.7336 7.19999 5.6 8.62239 5.6 8.62239V12.2672C5.6 12.2672 7.7336 10.8448 12 10.8448C16.2664 10.8448 18.4 12.2672 18.4 12.2672V8.62239C18.4 8.62239 16.2664 7.19999 12 7.19999Z" fill="#7C7E8F"/>
<path fill-rule="evenodd" clip-rule="evenodd" d="M22.4 7.19999C22.8418 7.19999 23.2 7.55816 23.2 7.99999V18.4C23.2 18.8418 22.8418 19.2 22.4 19.2C21.9582 19.2 21.6 18.8418 21.6 18.4V7.99999C21.6 7.55816 21.9582 7.19999 22.4 7.19999Z" fill="#7C7E8F"/>
<path d="M24 19.2C24 20.084 22.4 22.4 22.4 22.4C22.4 22.4 20.8 20.084 20.8 19.2C20.8 18.316 21.516 17.6 22.4 17.6C23.284 17.6 24 18.316 24 19.2Z" fill="#7C7E8F"/>
</svg>
