<svg width="24" height="24" viewBox="0 0 24 24" fill="none" xmlns="http://www.w3.org/2000/svg">
<path fill-rule="evenodd" clip-rule="evenodd" d="M4.42856 9.42856C4.42856 6.84 7.05237 4.42856 10.7143 4.42856C14.3762 4.42856 17 6.84 17 9.42856C17 12.0171 14.3762 14.4286 10.7143 14.4286C9.94155 14.4286 9.20433 14.3172 8.52473 14.1151C8.25727 14.0356 7.96874 14.0714 7.72887 14.2139C6.87206 14.7231 5.92378 15.0596 4.93807 15.2045L5.43465 13.9631C5.53843 13.7036 5.63102 13.4403 5.71227 13.1738C5.812 12.8468 5.73773 12.4915 5.51537 12.2318C4.81628 11.4153 4.42856 10.4493 4.42856 9.42856ZM10.7143 2.42856C6.3286 2.42856 2.42856 5.3897 2.42856 9.42856C2.42856 10.7768 2.87789 12.0237 3.63479 13.0733C3.61626 13.1224 3.59723 13.1714 3.5777 13.2203L3.81852 13.3166L3.5777 13.2203L2.64815 15.5441C2.31448 16.3783 2.92882 17.2857 3.82724 17.2857C5.42232 17.2857 6.98276 16.89 8.37336 16.1461C9.11739 16.3303 9.90328 16.4286 10.7143 16.4286C15.0999 16.4286 19 13.4674 19 9.42856C19 5.3897 15.0999 2.42856 10.7143 2.42856ZM22.0207 11.5354C21.8219 11.0201 21.2431 10.7636 20.7278 10.9624C20.2126 11.1612 19.956 11.7401 20.1548 12.2553C20.3334 12.7181 20.4286 13.2074 20.4286 13.7143C20.4286 14.7351 20.0409 15.701 19.3418 16.5175C19.1194 16.7772 19.0451 17.1325 19.1449 17.4595C19.2261 17.726 19.3187 17.9893 19.4225 18.2488L19.9191 19.4902C18.9334 19.3453 17.9851 19.0088 17.1283 18.4996C16.8884 18.3571 16.5999 18.3213 16.3324 18.4008C15.6528 18.6029 14.9156 18.7143 14.1429 18.7143C12.8556 18.7143 11.6684 18.4052 10.6821 17.8843C10.1938 17.6264 9.58881 17.8132 9.33089 18.3016C9.07297 18.79 9.25979 19.3949 9.74815 19.6529C11.0287 20.3291 12.5374 20.7143 14.1429 20.7143C14.9538 20.7143 15.7397 20.616 16.4838 20.4318C17.8744 21.1757 19.4348 21.5714 21.0299 21.5714C21.9283 21.5714 22.5426 20.664 22.209 19.8298L21.2794 17.506C21.2599 17.4571 21.2409 17.4082 21.2223 17.359C21.9792 16.3094 22.4286 15.0625 22.4286 13.7143C22.4286 12.953 22.2849 12.22 22.0207 11.5354Z" fill="#7C7E8F"/>
</svg>
