<svg width="24" height="24" viewBox="0 0 24 24" fill="none" xmlns="http://www.w3.org/2000/svg">
<path fill-rule="evenodd" clip-rule="evenodd" d="M12 3.56642C9.96783 3.56642 8.04101 5.3222 7.86502 7.47396C7.77842 8.53272 8.13717 9.94611 8.63558 11.057C9.12359 12.1446 10.0159 13.122 10.8529 13.7657C11.6153 14.3521 11.4577 15.4452 10.7724 15.9056C9.05544 17.059 7.35755 17.8076 6.05357 18.2756C5.75815 18.3817 5.63876 18.5714 5.61637 18.6515C5.61473 18.6573 5.6137 18.662 5.61306 18.6656C5.62346 18.6773 5.64599 18.6981 5.69031 18.7245C7.31017 19.6868 9.81861 20.4336 12 20.4336C14.1814 20.4336 16.6898 19.6868 18.3097 18.7245C18.354 18.6981 18.3765 18.6773 18.3869 18.6656C18.3863 18.662 18.3853 18.6573 18.3836 18.6515C18.3612 18.5714 18.2418 18.3817 17.9464 18.2756C16.6425 17.8076 14.9446 17.059 13.2276 15.9056C12.5423 15.4452 12.3847 14.3521 13.1471 13.7657C13.9841 13.122 14.8764 12.1446 15.3644 11.057C15.8628 9.94611 16.2216 8.53272 16.135 7.47396C15.959 5.3222 14.0322 3.56642 12 3.56642ZM18.3947 18.6551C18.3948 18.6552 18.3943 18.6562 18.3929 18.6583C18.3939 18.6561 18.3946 18.6551 18.3947 18.6551ZM5.60528 18.6551C5.60537 18.6551 5.60607 18.6561 5.60711 18.6583C5.6057 18.6562 5.60518 18.6552 5.60528 18.6551ZM5.61203 18.6741C5.61213 18.675 5.61211 18.6755 5.61208 18.6755C5.61205 18.6755 5.612 18.6751 5.61203 18.6741ZM5.88164 7.31173C6.13996 4.15357 8.90551 1.57642 12 1.57642C15.0945 1.57642 17.8601 4.15357 18.1184 7.31173C18.2428 8.83312 17.7514 10.5982 17.18 11.8716C16.6756 12.9958 15.8858 13.9772 15.083 14.7285C16.3727 15.5065 17.6189 16.0438 18.6186 16.4026C19.4265 16.6925 20.0787 17.3238 20.3001 18.1155C20.4132 18.52 20.4117 18.9709 20.2378 19.4038C20.0628 19.8395 19.7404 20.1892 19.3261 20.4353C17.4072 21.5752 14.549 22.4236 12 22.4236C9.45103 22.4236 6.59275 21.5752 4.67394 20.4353C4.25955 20.1892 3.93722 19.8395 3.76219 19.4038C3.58828 18.9709 3.58678 18.52 3.69991 18.1155C3.92131 17.3238 4.57348 16.6925 5.38136 16.4026L5.71746 17.3391L5.38136 16.4026C6.38106 16.0438 7.62727 15.5065 8.91705 14.7285C8.11418 13.9772 7.32439 12.9958 6.81996 11.8716C6.24863 10.5982 5.7572 8.83312 5.88164 7.31173Z" fill="#7C7E8F"/>
</svg>
