<svg width="24" height="24" viewBox="0 0 24 24" fill="none" xmlns="http://www.w3.org/2000/svg">
<path d="M14.4 10.4C20.8 10.4 22.4 14.4 22.4 14.4V4.79999C22.4 4.79999 20.8 8.79999 14.4 8.79999V10.4Z" fill="#7C7E8F"/>
<path fill-rule="evenodd" clip-rule="evenodd" d="M23.2 4C23.6418 4 24 4.35817 24 4.8V14.4C24 14.8418 23.6418 15.2 23.2 15.2C22.7582 15.2 22.4 14.8418 22.4 14.4V4.8C22.4 4.35817 22.7582 4 23.2 4ZM4 13.2C4 10.7702 5.97017 8.8 8.4 8.8H18.7336C19.1754 8.8 19.5336 9.15817 19.5336 9.6C19.5336 10.0418 19.1754 10.4 18.7336 10.4H8.4C6.85383 10.4 5.6 11.6538 5.6 13.2C5.6 14.7462 6.85383 16 8.4 16H14.8C15.463 16 16 15.463 16 14.8C16 14.137 15.463 13.6 14.8 13.6H8C7.55817 13.6 7.2 13.2418 7.2 12.8C7.2 12.3582 7.55817 12 8 12H14.8C16.3466 12 17.6 13.2534 17.6 14.8C17.6 16.3466 16.3466 17.6 14.8 17.6H8.4C5.97017 17.6 4 15.6298 4 13.2ZM0.8 11.2C1.24183 11.2 1.6 11.5582 1.6 12V13.6C1.6 14.0418 1.24183 14.4 0.8 14.4C0.358172 14.4 0 14.0418 0 13.6V12C0 11.5582 0.358172 11.2 0.8 11.2Z" fill="#7C7E8F"/>
<path d="M4.79999 12H0.799988V13.6H4.79999V12Z" fill="#7C7E8F"/>
</svg>
