<svg width="24" height="24" viewBox="0 0 24 24" fill="none" xmlns="http://www.w3.org/2000/svg">
<path d="M17.6 4.79999H22.4V7.99999C22.4 8.44159 22.0416 8.79999 21.6 8.79999H18.4C17.9584 8.79999 17.6 8.44159 17.6 7.99999V4.79999Z" fill="#7C7E8F"/>
<path fill-rule="evenodd" clip-rule="evenodd" d="M6.26845 3.98913L1.46844 3.18913L1.73148 1.6109L6.53148 2.4109L6.26845 3.98913ZM16.8 4.80002C16.8 4.35819 17.1581 4.00002 17.6 4.00002H22.4C22.8418 4.00002 23.2 4.35819 23.2 4.80002C23.2 5.24184 22.8418 5.60002 22.4 5.60002H20.8V20H19.2V5.60002H17.6C17.1581 5.60002 16.8 5.24184 16.8 4.80002ZM7.33432 19.5563L8.93432 17.1563L10.2656 18.0438L8.6656 20.4438L7.33432 19.5563ZM15.0656 17.1563L16.6656 19.5563L15.3343 20.4438L13.7343 18.0438L15.0656 17.1563Z" fill="#7C7E8F"/>
<path d="M1.59998 6.39999H6.39997V9.59999C6.39997 10.0416 6.04157 10.4 5.59998 10.4H2.39998C1.95838 10.4 1.59998 10.0416 1.59998 9.59999V6.39999Z" fill="#7C7E8F"/>
<path fill-rule="evenodd" clip-rule="evenodd" d="M3.19999 5.59999V2.39999H4.79999V5.59999H6.39999C6.84181 5.59999 7.19999 5.95817 7.19999 6.39999C7.19999 6.84182 6.84181 7.19999 6.39999 7.19999H4.79999V20H3.19999V7.19999H1.59999C1.15816 7.19999 0.799988 6.84182 0.799988 6.39999C0.799988 5.95817 1.15816 5.59999 1.59999 5.59999H3.19999Z" fill="#7C7E8F"/>
<path d="M12 8.79999C8.90722 8.79999 6.40002 11.3072 6.40002 14.4C6.40002 17.4928 8.90722 20 12 20C15.0928 20 17.6 17.4928 17.6 14.4C17.6 11.3072 15.0928 8.79999 12 8.79999ZM14.4 16.8C13.9584 16.8 13.6 16.4416 13.6 16C13.6 15.5584 13.9584 15.2 14.4 15.2C14.8416 15.2 15.2 15.5584 15.2 16C15.2 16.4416 14.8416 16.8 14.4 16.8Z" fill="#7C7E8F"/>
</svg>
