<svg width="24" height="24" viewBox="0 0 24 24" fill="none" xmlns="http://www.w3.org/2000/svg">
<path d="M12.0816 4.96241L2.40002 8.80001V16H21.6V12C21.6 9.79121 19.8088 8.00001 17.6 8.00001H16.8264C15.784 8.00001 14.7824 7.59281 14.0352 6.86561L12.0816 4.96241Z" fill="#7C7E8F"/>
<path fill-rule="evenodd" clip-rule="evenodd" d="M3.20002 15.2C3.64185 15.2 4.00002 15.5582 4.00002 16V19.2H20V16C20 15.5582 20.3582 15.2 20.8 15.2C21.2418 15.2 21.6 15.5582 21.6 16V20C21.6 20.4418 21.2418 20.8 20.8 20.8H3.20002C2.7582 20.8 2.40002 20.4418 2.40002 20V16C2.40002 15.5582 2.7582 15.2 3.20002 15.2Z" fill="#7C7E8F"/>
<path d="M8.00002 3.20001C7.26462 3.20001 6.53642 3.34486 5.857 3.62629C5.17757 3.90771 4.56023 4.32021 4.04023 4.84021C3.52022 5.36022 3.10773 5.97756 2.8263 6.65698C2.54487 7.33641 2.40002 8.06461 2.40002 8.80001C2.40002 9.53542 2.54487 10.2636 2.8263 10.943C3.10773 11.6225 3.52022 12.2398 4.04023 12.7598C4.56023 13.2798 5.17757 13.6923 5.857 13.9737C6.53642 14.2552 7.26462 14.4 8.00002 14.4C8.73543 14.4 9.46363 14.2552 10.1431 13.9737C10.8225 13.6923 11.4398 13.2798 11.9598 12.7598C12.4798 12.2398 12.8923 11.6225 13.1737 10.943C13.4552 10.2636 13.6 9.53542 13.6 8.80001C13.6 8.06461 13.4552 7.33641 13.1737 6.65698C12.8923 5.97756 12.4798 5.36022 11.9598 4.84021C11.4398 4.32021 10.8225 3.90771 10.1431 3.62629C9.46363 3.34486 8.73543 3.20001 8.00002 3.20001ZM7.20002 16H5.60002V18C5.60002 18.2208 5.77922 18.4 6.00002 18.4H6.80002C7.02082 18.4 7.20002 18.2208 7.20002 18V16ZM9.60002 16H8.00002V18C8.00002 18.2208 8.17922 18.4 8.40002 18.4H9.20002C9.42082 18.4 9.60002 18.2208 9.60002 18V16ZM13.6 16H12V18C12 18.2208 12.1792 18.4 12.4 18.4H13.2C13.4208 18.4 13.6 18.2208 13.6 18V16ZM16 16H14.4V18C14.4 18.2208 14.5792 18.4 14.8 18.4H15.6C15.8208 18.4 16 18.2208 16 18V16ZM18.4 16H16.8V18C16.8 18.2208 16.9792 18.4 17.2 18.4H18C18.2208 18.4 18.4 18.2208 18.4 18V16Z" fill="#7C7E8F"/>
</svg>
