<svg width="24" height="24" viewBox="0 0 24 24" fill="none" xmlns="http://www.w3.org/2000/svg">
<path d="M21.5912 5.0152L21.932 4.6744L21.6768 4.4192L22.2728 3.8232C22.4432 3.6528 22.4432 3.4824 22.2728 3.312L20.74 1.7792C20.5696 1.6088 20.3992 1.6088 20.2288 1.7792L19.632 2.3752L19.376 2.1192L19.0352 2.46L19.2904 2.7152L18.9504 3.056L18.6952 2.8008L18.3544 3.1416L18.6096 3.3968L18.0136 3.9928C17.8432 4.1632 17.8432 4.3336 18.0136 4.504L12.4616 10.0568L13.9944 11.5896L19.632 5.952C19.8024 6.1224 19.9728 6.1224 20.1432 5.952L20.7392 5.356L20.9944 5.6112L21.3352 5.2704L21.08 5.0152L21.4208 4.6744L21.5912 5.0152Z" fill="#7C7E8F"/>
<path d="M16.3704 11.484L14.8408 13.0136C14.5288 13.3256 14.0216 13.3256 13.7096 13.0136C13.3976 12.7008 13.3976 12.1944 13.7096 11.8824L15.5096 10.0824C15.3144 9.8288 15.0664 9.5328 14.7712 9.2376C13.86 8.3264 12.82 7.6648 11.8416 7.376C10.5056 6.9824 9.31522 7.26 8.39602 8.1776C7.99042 8.5832 7.73122 9.0912 7.62802 9.6856C7.46082 10.6488 6.61122 11.3968 5.60882 11.4648C4.51442 11.5384 3.55282 11.9592 2.83122 12.6816C0.928024 14.5848 1.28402 18.04 3.62642 20.3808C4.95522 21.7104 6.64242 22.4 8.20162 22.4C9.38882 22.4 10.5024 21.9992 11.3264 21.176C12.0496 20.4536 12.4696 19.4928 12.5432 18.3984C12.6112 17.396 13.3592 16.5464 14.3224 16.3792C14.9176 16.276 15.4256 16.0176 15.8312 15.6112C16.7496 14.6928 17.0272 13.5016 16.6328 12.1656C16.5656 11.9416 16.4768 11.7136 16.3704 11.484ZM8.15282 18.4248C7.84002 18.7376 7.33362 18.7376 7.02162 18.4248L5.57522 16.9784C5.26322 16.6656 5.26322 16.16 5.57522 15.8472C5.88802 15.5344 6.39442 15.5344 6.70642 15.8472L8.15282 17.2936C8.46562 17.6064 8.46562 18.1128 8.15282 18.4248ZM10.4 15.2C9.51602 15.2 8.80002 14.484 8.80002 13.6C8.80002 12.716 9.51602 12 10.4 12C11.284 12 12 12.716 12 13.6C12 14.484 11.284 15.2 10.4 15.2Z" fill="#7C7E8F"/>
</svg>
