<svg width="24" height="24" viewBox="0 0 24 24" fill="none" xmlns="http://www.w3.org/2000/svg">
<path d="M8.39998 12C7.86954 12 7.36083 12.2107 6.98576 12.5858C6.61069 12.9608 6.39998 13.4696 6.39998 14C6.39998 14.5304 6.61069 15.0391 6.98576 15.4142C7.36083 15.7893 7.86954 16 8.39998 16C8.93041 16 9.43912 15.7893 9.81419 15.4142C10.1893 15.0391 10.4 14.5304 10.4 14C10.4 13.4696 10.1893 12.9608 9.81419 12.5858C9.43912 12.2107 8.93041 12 8.39998 12ZM3.19998 14.4C2.77563 14.4 2.36866 14.5686 2.0686 14.8686C1.76855 15.1687 1.59998 15.5756 1.59998 16C1.59998 16.4243 1.76855 16.8313 2.0686 17.1314C2.36866 17.4314 2.77563 17.6 3.19998 17.6C3.62432 17.6 4.03129 17.4314 4.33135 17.1314C4.6314 16.8313 4.79998 16.4243 4.79998 16C4.79998 15.5756 4.6314 15.1687 4.33135 14.8686C4.03129 14.5686 3.62432 14.4 3.19998 14.4ZM6.39998 9.19999C6.39998 9.86239 5.86238 10.4 5.19998 10.4C4.53758 10.4 4.79998 9.86239 4.79998 9.19999C4.79998 8.53759 5.33758 7.99999 5.99998 7.99999C6.66238 7.99999 6.39998 8.53759 6.39998 9.19999ZM15.6 14.4C14.8574 14.4 14.1452 14.695 13.6201 15.2201C13.095 15.7452 12.8 16.4574 12.8 17.2C12.8 17.9426 13.095 18.6548 13.6201 19.1799C14.1452 19.705 14.8574 20 15.6 20C16.3426 20 17.0548 19.705 17.5799 19.1799C18.105 18.6548 18.4 17.9426 18.4 17.2C18.4 16.4574 18.105 15.7452 17.5799 15.2201C17.0548 14.695 16.3426 14.4 15.6 14.4Z" fill="#7C7E8F"/>
<path d="M15.6 11.2H22.4V20H15.6V11.2Z" fill="#7C7E8F"/>
<path d="M13.5624 6.92959L11.0168 11.5392L12.8896 11.988C13.0448 12.0256 13.204 11.9624 13.2872 11.8264C13.364 11.7008 13.4824 11.5056 13.6656 11.2C14.0408 10.5736 15.0256 11.2 14.6408 11.74C14.5352 11.8872 14.4112 12.076 14.2864 12.272C13.8752 12.9168 13.0944 13.2232 12.3568 13.0232L9.19198 12.1648L7.41037 15.7384C7.41037 15.7384 14.3936 19.7256 14.4648 19.7592L15.8816 18.8552L21.6 12L13.5624 6.92959ZM11.996 6.47439C12.1232 6.42879 12.2576 6.39999 12.4 6.39999C12.692 6.39999 12.956 6.50799 13.164 6.68159L13.1712 6.68319L13.5624 6.92959L14.344 5.55039C14.5896 5.11759 14.4336 4.56719 13.9984 4.32639L12.8704 3.70319C12.44 3.46559 11.8984 3.61999 11.6576 4.04879L10.024 6.96239L11.9912 6.47359L11.996 6.47439ZM4.37517 20.3792C3.63038 19.968 3.35998 19.0312 3.77118 18.2856L5.38637 15.3528C5.75677 16.7488 7.67038 17.6 7.67038 17.6L6.46878 19.7752C6.05758 20.5208 5.11998 20.7912 4.37517 20.3792ZM14.7016 3.67919L13.156 2.77599L13.5408 2.12719C13.7904 1.70079 14.3384 1.55679 14.7656 1.80639C15.192 2.05599 15.336 2.60399 15.0864 3.03119L14.7016 3.67919Z" fill="#7C7E8F"/>
<path d="M4.37517 20.3792L5.62478 18.2096L4.37517 20.3792Z" fill="#7C7E8F"/>
<path d="M5.09118 14C5.09118 12.3304 6.33197 10.964 7.93918 10.7376L10.024 6.96239L5.69037 8.03999L4.85038 8.85599L1.67038 15.5312L4.61358 16.748L5.38718 15.352C5.20078 14.9392 5.09118 14.4832 5.09118 14Z" fill="#7C7E8F"/>
</svg>
