<svg width="24" height="24" viewBox="0 0 24 24" fill="none" xmlns="http://www.w3.org/2000/svg">
<path d="M8.80001 15.6C8.80001 13.7224 9.56081 12.0224 10.792 10.792C12.0224 9.56081 13.7224 8.80001 15.6 8.80001C15.6408 8.80001 15.68 8.80561 15.7208 8.80641C15.5816 8.09361 15.3944 7.45601 15.1696 7.23121C14.656 6.71761 11.9832 6.40001 11.2 6.40001C10.4168 6.40001 7.74401 6.71761 7.23041 7.23041C6.71681 7.74321 6.40001 10.4168 6.40001 11.2C6.40001 11.9832 6.71761 14.656 7.23041 15.1696C7.45521 15.3944 8.09361 15.5816 8.80561 15.7208C8.80561 15.68 8.80001 15.6408 8.80001 15.6Z" fill="#7C7E8F"/>
<path d="M6.09921 6.09921C6.96401 5.23521 9.19601 4.94321 10.4 4.84641V3.20001H3.20001V10.4H4.84641C4.94321 9.19601 5.23521 6.96401 6.09921 6.09921ZM15.6 10.4C14.2209 10.4 12.8982 10.9479 11.9231 11.9231C10.9479 12.8982 10.4 14.2209 10.4 15.6C10.4 16.9791 10.9479 18.3018 11.9231 19.277C12.8982 20.2522 14.2209 20.8 15.6 20.8C16.9791 20.8 18.3018 20.2522 19.277 19.277C20.2522 18.3018 20.8 16.9791 20.8 15.6C20.8 14.2209 20.2522 12.8982 19.277 11.9231C18.3018 10.9479 16.9791 10.4 15.6 10.4Z" fill="#7C7E8F"/>
</svg>
