<svg width="24" height="24" viewBox="0 0 24 24" fill="none" xmlns="http://www.w3.org/2000/svg">
<path d="M11.3728 7.70399L2.57522 18.7C2.32082 19.0184 2.34562 19.4768 2.63442 19.7656L4.23442 21.3656C4.38962 21.5208 4.59442 21.6 4.80002 21.6C4.97602 21.6 5.15282 21.5424 5.29922 21.4248L16.296 12.6272L11.3728 7.70399ZM10.9656 14.1656C10.8096 14.3216 10.6048 14.4 10.4 14.4C10.1952 14.4 9.99042 14.3216 9.83442 14.1656C9.52162 13.8528 9.52162 13.3472 9.83442 13.0344L11.4344 11.4344C11.7472 11.1216 12.2528 11.1216 12.5656 11.4344C12.8784 11.7472 12.8784 12.2528 12.5656 12.5656L10.9656 14.1656ZM16.8 2.39999C14.4976 2.39999 12.584 4.02399 12.1184 6.18719L17.8128 11.8816C19.976 11.416 21.6 9.50239 21.6 7.19999C21.6 4.54879 19.4512 2.39999 16.8 2.39999Z" fill="#7C7E8F"/>
</svg>
