<svg width="24" height="24" viewBox="0 0 24 24" fill="none" xmlns="http://www.w3.org/2000/svg">
<path d="M4 4.80001V16.32C4 16.8424 4.2544 17.3312 4.6824 17.6304L11.0824 22.1104C11.6336 22.496 12.3664 22.496 12.9176 22.1104L19.3176 17.6304C19.7456 17.3312 20 16.8424 20 16.32V4.80001C20 3.91601 19.284 3.20001 18.4 3.20001H5.6C4.716 3.20001 4 3.91601 4 4.80001ZM15.2 9.00721C15.2 9.12561 15.116 9.22801 15 9.25121L12.8 9.90961C12.8 9.90961 12.8 12.5736 12.8 13.7416C12.8 14.9296 12.3944 16 10.9864 16C10.2536 16 9.6 15.4704 9.6 14.6704C9.6 12.5872 12 13.324 12 12.3264V8.61121C12 8.25041 12.2416 7.93441 12.5896 7.83921L14.9144 7.20481C15.0624 7.17521 15.2 7.28801 15.2 7.43921V9.00721Z" fill="#7C7E8F"/>
</svg>
