<svg width="24" height="24" viewBox="0 0 24 24" fill="none" xmlns="http://www.w3.org/2000/svg">
<path d="M12 11.2C11.7878 11.2 11.5844 11.2843 11.4343 11.4343C11.2843 11.5844 11.2 11.7878 11.2 12C11.2 12.2122 11.2843 12.4157 11.4343 12.5657C11.5844 12.7157 11.7878 12.8 12 12.8C12.2122 12.8 12.4157 12.7157 12.5657 12.5657C12.7157 12.4157 12.8 12.2122 12.8 12C12.8 11.7878 12.7157 11.5844 12.5657 11.4343C12.4157 11.2843 12.2122 11.2 12 11.2Z" fill="#7C7E8F"/>
<path d="M12 2.40002C6.69842 2.40002 2.40002 6.69842 2.40002 12C2.40002 17.3016 6.69842 21.6 12 21.6C17.3016 21.6 21.6 17.3016 21.6 12C21.6 6.69842 17.3016 2.40002 12 2.40002ZM7.35442 18.504C6.63682 17.9904 6.00962 17.3632 5.49602 16.6456L8.09762 14.7872C8.40562 15.2176 8.78242 15.5944 9.21282 15.9024L7.35442 18.504ZM12 15.2C10.2328 15.2 8.80002 13.7672 8.80002 12C8.80002 10.2328 10.2328 8.80002 12 8.80002C13.7672 8.80002 15.2 10.2328 15.2 12C15.2 13.7672 13.7672 15.2 12 15.2ZM15.9024 9.21282C15.5944 8.78242 15.2176 8.40562 14.7872 8.09762L16.6456 5.49602C17.3632 6.00962 17.9904 6.63682 18.504 7.35442L15.9024 9.21282Z" fill="#7C7E8F"/>
</svg>
