<svg width="24" height="24" viewBox="0 0 24 24" fill="none" xmlns="http://www.w3.org/2000/svg">
<path fill-rule="evenodd" clip-rule="evenodd" d="M7.20001 20C7.20001 19.5582 7.55818 19.2 8.00001 19.2H16C16.4418 19.2 16.8 19.5582 16.8 20C16.8 20.4418 16.4418 20.8 16 20.8H8.00001C7.55818 20.8 7.20001 20.4418 7.20001 20Z" fill="#7C7E8F"/>
<path d="M20 4.79999H4.00002C3.11602 4.79999 2.40002 5.51599 2.40002 6.39999V16C2.40002 16.884 3.11602 17.6 4.00002 17.6H20C20.884 17.6 21.6 16.884 21.6 16V6.39999C21.6 5.51599 20.884 4.79999 20 4.79999ZM15.2 8.61599C15.2 8.73439 15.116 8.83679 15 8.85999L12.8 9.51839C12.8 9.51839 12.8 11.7736 12.8 12.9416C12.8 14.1296 12.3944 15.2 10.9864 15.2C10.0744 15.2 9.60002 14.6704 9.60002 13.8704C9.60002 11.7872 12 12.524 12 11.5264V7.19999L14.9144 6.40479C15.0624 6.37519 15.2 6.48799 15.2 6.63919V8.61599Z" fill="#7C7E8F"/>
</svg>
