<svg width="24" height="24" viewBox="0 0 24 24" fill="none" xmlns="http://www.w3.org/2000/svg">
<path fill-rule="evenodd" clip-rule="evenodd" d="M18.3659 2.9325C18.6695 2.59375 19.1028 2.40002 19.5577 2.40002H20.8C21.2419 2.40002 21.6 2.7582 21.6 3.20002C21.6 3.64185 21.2419 4.00002 20.8 4.00002H19.5578M19.5574 4.00035L10.8382 13.7307C10.5434 14.0598 10.0376 14.0875 9.70857 13.7926C9.37952 13.4978 9.3518 12.992 9.64666 12.6629L18.3659 2.93254L18.3659 2.9325" fill="#7C7E8F"/>
<path d="M11.4129 11.9128C9.93205 10.432 11.2001 8.9464 11.2001 7.2C9.20885 7.2 8.00005 7.8072 8.00005 9.4976C8.00005 10.4112 7.30805 11.2 6.25445 11.2C5.60485 11.2 4.58485 11.4856 3.69605 12.3744C1.96325 14.1512 1.83045 16.8176 4.14005 19.0832C6.45045 21.3936 9.07125 21.216 10.8041 19.4832C11.8257 18.4616 11.8257 17.528 11.9593 16.5512C12.1825 14.7288 15.2001 15.58 15.2001 12.8C12.0001 12.8 11.4129 11.9128 11.4129 11.9128ZM8.22405 17.424C8.10725 17.5416 7.95365 17.6 7.80005 17.6C7.64645 17.6 7.49285 17.5416 7.37605 17.424L5.77605 15.824C5.54165 15.5896 5.54165 15.2096 5.77605 14.9752C6.01045 14.7408 6.39045 14.7408 6.62485 14.9752L8.22485 16.5752C8.45845 16.8104 8.45845 17.1896 8.22405 17.424ZM10.2241 15.424C10.1073 15.5408 9.95365 15.6 9.80005 15.6C9.64645 15.6 9.49285 15.5416 9.37605 15.424L7.77605 13.824C7.54165 13.5896 7.54165 13.2096 7.77605 12.9752C8.01045 12.7408 8.39045 12.7408 8.62485 12.9752L10.2249 14.5752C10.4585 14.8104 10.4585 15.1896 10.2241 15.424ZM18.4001 4C18.1879 4 17.9844 4.08429 17.8344 4.23431C17.6843 4.38434 17.6001 4.58783 17.6001 4.8C17.6001 5.01217 17.6843 5.21566 17.8344 5.36569C17.9844 5.51571 18.1879 5.6 18.4001 5.6C18.6122 5.6 18.8157 5.51571 18.9657 5.36569C19.1158 5.21566 19.2001 5.01217 19.2001 4.8C19.2001 4.58783 19.1158 4.38434 18.9657 4.23431C18.8157 4.08429 18.6122 4 18.4001 4Z" fill="#7C7E8F"/>
</svg>
