<svg width="24" height="24" viewBox="0 0 24 24" fill="none" xmlns="http://www.w3.org/2000/svg">
<path fill-rule="evenodd" clip-rule="evenodd" d="M9.60001 3.20002H20.8C21.2418 3.20002 21.6 3.5582 21.6 4.00002V14.4H20V4.80002H9.60001V3.20002Z" fill="#7C7E8F"/>
<path fill-rule="evenodd" clip-rule="evenodd" d="M9.60001 14.4C9.60001 13.9582 9.95818 13.6 10.4 13.6H21.6C22.0418 13.6 22.4 13.9582 22.4 14.4C22.4 14.8419 22.0418 15.2 21.6 15.2H10.4C9.95818 15.2 9.60001 14.8419 9.60001 14.4Z" fill="#7C7E8F"/>
<path d="M5.60001 7.20002C6.9255 7.20002 8.00001 6.12551 8.00001 4.80002C8.00001 3.47454 6.9255 2.40002 5.60001 2.40002C4.27453 2.40002 3.20001 3.47454 3.20001 4.80002C3.20001 6.12551 4.27453 7.20002 5.60001 7.20002Z" fill="#7C7E8F"/>
<path fill-rule="evenodd" clip-rule="evenodd" d="M6.40001 9.60002C6.40001 9.1582 6.75818 8.80002 7.20001 8.80002H12.8C13.2418 8.80002 13.6 9.1582 13.6 9.60002C13.6 10.0419 13.2418 10.4 12.8 10.4H7.20001C6.75818 10.4 6.40001 10.0419 6.40001 9.60002Z" fill="#7C7E8F"/>
<path d="M8.00001 20.7736C8.00001 21.2296 7.62961 21.6 7.17361 21.6C6.73841 21.6 6.37761 21.2624 6.34881 20.828L5.99841 15.572C5.98401 15.3632 5.81041 15.2 5.60001 15.2C5.38961 15.2 5.21601 15.3632 5.20161 15.5728L4.85121 20.8288C4.82241 21.2624 4.46161 21.6 4.02641 21.6C3.57041 21.6 3.20001 21.2296 3.20001 20.7736V10.4C3.20001 9.51602 3.91601 8.80002 4.80001 8.80002H9.60001V10.4H8.80001C8.35841 10.4 8.00001 10.7584 8.00001 11.2V20.7736Z" fill="#7C7E8F"/>
<path d="M11.2 13.6H9.60001V15.2H11.2V13.6Z" fill="#7C7E8F"/>
<path d="M16.8 12.8H13.6V14.4H16.8V12.8Z" fill="#7C7E8F"/>
</svg>
