<svg width="24" height="24" viewBox="0 0 24 24" fill="none" xmlns="http://www.w3.org/2000/svg">
<g clip-path="url(#clip0)">
<path d="M2.40002 20.8H12C11.2368 18.82 9.54562 19.016 8.80002 17.8768V16.9776C9.11282 16.656 9.78802 15.904 9.85122 15.348C9.85122 15.348 10.44 14.9408 10.44 14.212C10.44 13.7064 10.2144 13.6304 10.2144 13.6304C10.2144 13.6304 10.62 12.8608 10.62 12.1264C10.62 10.6544 9.88082 9.52162 8.64002 9.52162C8.64002 9.52162 8.11282 8.80162 7.20002 8.80162C5.26162 8.80162 3.68962 9.96882 3.68962 12.0584C3.68962 12.9416 4.18562 13.6304 4.18562 13.6304C4.18562 13.6304 3.96002 13.7392 3.96002 14.2112C3.96002 15.128 4.54882 15.3472 4.54882 15.3472C4.61202 15.904 5.28722 16.6552 5.60002 16.9768V17.876C4.85442 19.016 3.16322 18.82 2.40002 20.8ZM13.56 14.2112C13.56 15.128 14.1488 15.3472 14.1488 15.3472C14.212 15.904 14.8872 16.6552 15.2 16.9768V17.876C14.7152 18.6168 13.832 18.796 13.0632 19.372C13.22 19.6248 13.368 19.9 13.4928 20.2232L13.7152 20.8H21.6C20.8368 18.82 19.1456 19.016 18.4 17.8768V16.9776C18.7128 16.656 19.388 15.904 19.4512 15.348C19.4512 15.348 20.04 14.9408 20.04 14.212C20.04 13.7064 19.8144 13.6304 19.8144 13.6304C19.8144 13.6304 20.22 12.8608 20.22 12.1264C20.22 10.6544 19.4808 9.52162 18.24 9.52162C18.24 9.52162 17.7128 8.80162 16.8 8.80162C14.8616 8.80162 13.2896 9.96882 13.2896 12.0584C13.2896 12.9416 13.7856 13.6304 13.7856 13.6304C13.7856 13.6304 13.56 13.7392 13.56 14.2112ZM10.2584 6.40002H13.744C13.888 5.96162 14.1096 5.60242 14.2824 5.42722C14.8488 4.85362 15.2 4.07042 15.2 3.20002C15.2 1.18242 13.3328 -0.399182 11.2312 0.088818C10.0976 0.352818 9.17442 1.26562 8.89762 2.39682C8.60562 3.58962 8.98562 4.69522 9.73042 5.44082C9.90162 5.61202 10.1176 5.96562 10.2584 6.40002ZM10.4 7.20002H13.5928C13.5552 7.96322 13.0272 8.65442 12.2688 8.77842C11.2664 8.94082 10.4 8.17202 10.4 7.20002ZM17.6 1.7956e-05C17.3879 1.7956e-05 17.1844 0.0843034 17.0343 0.234333C16.8843 0.384362 16.8 0.587845 16.8 0.800018C16.8 1.01219 16.8843 1.21567 17.0343 1.3657C17.1844 1.51573 17.3879 1.60002 17.6 1.60002C17.8122 1.60002 18.0157 1.51573 18.1657 1.3657C18.3157 1.21567 18.4 1.01219 18.4 0.800018C18.4 0.587845 18.3157 0.384362 18.1657 0.234333C18.0157 0.0843034 17.8122 1.7956e-05 17.6 1.7956e-05ZM19.2 2.40002C18.9879 2.40002 18.7844 2.4843 18.6343 2.63433C18.4843 2.78436 18.4 2.98784 18.4 3.20002C18.4 3.41219 18.4843 3.61567 18.6343 3.7657C18.7844 3.91573 18.9879 4.00002 19.2 4.00002C19.4122 4.00002 19.6157 3.91573 19.7657 3.7657C19.9157 3.61567 20 3.41219 20 3.20002C20 2.98784 19.9157 2.78436 19.7657 2.63433C19.6157 2.4843 19.4122 2.40002 19.2 2.40002ZM17.6 4.80002C17.3879 4.80002 17.1844 4.8843 17.0343 5.03433C16.8843 5.18436 16.8 5.38785 16.8 5.60002C16.8 5.81219 16.8843 6.01567 17.0343 6.1657C17.1844 6.31573 17.3879 6.40002 17.6 6.40002C17.8122 6.40002 18.0157 6.31573 18.1657 6.1657C18.3157 6.01567 18.4 5.81219 18.4 5.60002C18.4 5.38785 18.3157 5.18436 18.1657 5.03433C18.0157 4.8843 17.8122 4.80002 17.6 4.80002ZM6.40002 4.80002C6.18785 4.80002 5.98437 4.8843 5.83434 5.03433C5.68431 5.18436 5.60002 5.38785 5.60002 5.60002C5.60002 5.81219 5.68431 6.01567 5.83434 6.1657C5.98437 6.31573 6.18785 6.40002 6.40002 6.40002C6.6122 6.40002 6.81568 6.31573 6.96571 6.1657C7.11574 6.01567 7.20002 5.81219 7.20002 5.60002C7.20002 5.38785 7.11574 5.18436 6.96571 5.03433C6.81568 4.8843 6.6122 4.80002 6.40002 4.80002ZM4.80002 2.40002C4.58785 2.40002 4.38437 2.4843 4.23434 2.63433C4.08431 2.78436 4.00002 2.98784 4.00002 3.20002C4.00002 3.41219 4.08431 3.61567 4.23434 3.7657C4.38437 3.91573 4.58785 4.00002 4.80002 4.00002C5.0122 4.00002 5.21568 3.91573 5.36571 3.7657C5.51574 3.61567 5.60002 3.41219 5.60002 3.20002C5.60002 2.98784 5.51574 2.78436 5.36571 2.63433C5.21568 2.4843 5.0122 2.40002 4.80002 2.40002ZM6.40002 1.7956e-05C6.18785 1.7956e-05 5.98437 0.0843034 5.83434 0.234333C5.68431 0.384362 5.60002 0.587845 5.60002 0.800018C5.60002 1.01219 5.68431 1.21567 5.83434 1.3657C5.98437 1.51573 6.18785 1.60002 6.40002 1.60002C6.6122 1.60002 6.81568 1.51573 6.96571 1.3657C7.11574 1.21567 7.20002 1.01219 7.20002 0.800018C7.20002 0.587845 7.11574 0.384362 6.96571 0.234333C6.81568 0.0843034 6.6122 1.7956e-05 6.40002 1.7956e-05Z" fill="#7C7E8F"/>
</g>
<defs>
<clipPath id="clip0">
<rect width="24" height="24" fill="white"/>
</clipPath>
</defs>
</svg>
