<svg width="24" height="24" viewBox="0 0 24 24" fill="none" xmlns="http://www.w3.org/2000/svg">
<path d="M3.20001 15.2V20.8H8.00001C8.00001 16.8 6.40001 15.2 6.40001 15.2H3.20001ZM6.40001 13.6C6.40001 13.6 12 9.60001 12 3.20001H4.80001C3.91601 3.20001 3.20001 3.91601 3.20001 4.80001V13.6H6.40001ZM20.8 15.2V20.8H16C16 16.8 17.6 15.2 17.6 15.2H20.8ZM19.2 3.20001H13.6C13.6 4.88881 13.3008 6.41841 12.8496 7.77921C14.2272 11.4456 17.6 13.6 17.6 13.6H20.8V4.80001C20.8 3.91601 20.084 3.20001 19.2 3.20001Z" fill="#7C7E8F"/>
</svg>
