<svg width="24" height="24" viewBox="0 0 24 24" fill="none" xmlns="http://www.w3.org/2000/svg">
<path d="M12.8 11.2C12.5878 11.2 12.3843 11.2843 12.2343 11.4343C12.0843 11.5844 12 11.7878 12 12C12 12.2122 12.0843 12.4157 12.2343 12.5657C12.3843 12.7157 12.5878 12.8 12.8 12.8C13.0122 12.8 13.2157 12.7157 13.3657 12.5657C13.5157 12.4157 13.6 12.2122 13.6 12C13.6 11.7878 13.5157 11.5844 13.3657 11.4343C13.2157 11.2843 13.0122 11.2 12.8 11.2Z" fill="#7C7E8F"/>
<path d="M9.83438 7.20001L13.4192 11.4952L13.0456 12.76L9.08398 14.1248L9.83438 7.20001Z" fill="#7C7E8F"/>
<path d="M12 11.2C12 6.4152 8.95681 2.5224 4.22481 2.4032C3.87921 2.3944 3.20001 2.4032 3.20001 2.4032V21.6H7.20001V20.8008C7.20001 19.9168 7.91681 19.2008 8.80001 19.2008H10.4C11.284 19.2008 12 18.4848 12 17.6008V16.8L9.95121 16.288C9.55601 16.1888 9.49681 15.652 9.86161 15.4696L12 14.4V11.2Z" fill="#7C7E8F"/>
<path fill-rule="evenodd" clip-rule="evenodd" d="M17.6307 11.2006C17.9861 11.2142 18.2899 11.4609 18.3761 11.806L19.4516 16.1079L20.0845 14.8422C20.22 14.5712 20.497 14.4 20.8 14.4H21.6C22.0418 14.4 22.4 14.7582 22.4 15.2C22.4 15.6418 22.0418 16 21.6 16H21.2944L19.9155 18.7578C19.7658 19.0572 19.4455 19.2317 19.1127 19.1952C18.7799 19.1587 18.5051 18.9188 18.4239 18.594L17.4902 14.8592L16.759 17.053C16.6566 17.3599 16.3795 17.575 16.0567 17.598C15.734 17.6209 15.4292 17.4472 15.2845 17.1578L14.7056 16H14.4C13.9582 16 13.6 15.6418 13.6 15.2C13.6 14.7582 13.9582 14.4 14.4 14.4H15.2C15.4585 14.4 15.698 14.5245 15.8469 14.7293L16.8411 11.747C16.9535 11.4096 17.2753 11.1869 17.6307 11.2006Z" fill="#7C7E8F"/>
</svg>
