<svg width="24" height="24" viewBox="0 0 24 24" fill="none" xmlns="http://www.w3.org/2000/svg">
<path fill-rule="evenodd" clip-rule="evenodd" d="M7 4.25C4.92893 4.25 3.25 5.92893 3.25 8V16C3.25 18.0711 4.92893 19.75 7 19.75H17C19.0711 19.75 20.75 18.0711 20.75 16V8C20.75 5.92893 19.0711 4.25 17 4.25H7ZM4.75 8C4.75 6.75736 5.75736 5.75 7 5.75H17C18.2426 5.75 19.25 6.75736 19.25 8V9.25H4.75V8ZM4.75 10.75V16C4.75 17.2426 5.75736 18.25 7 18.25H17C18.2426 18.25 19.25 17.2426 19.25 16V10.75H4.75Z" fill="#7C7E8F"/>
</svg>
