<svg width="24" height="24" viewBox="0 0 24 24" fill="none" xmlns="http://www.w3.org/2000/svg">
<path fill-rule="evenodd" clip-rule="evenodd" d="M10.4385 7.05021C8.97869 5.64992 6.59538 5.64992 5.1356 7.05021C3.7205 8.40764 3.60012 11.0379 4.92766 12.9309C5.35027 13.5335 6.28261 14.4103 7.44144 15.3654C8.57221 16.2973 9.82978 17.2329 10.8215 17.9466C11.4859 18.4248 11.618 18.5006 11.7602 18.5368C11.9069 18.5742 12.1077 18.5741 12.2543 18.5367C12.3965 18.5004 12.5288 18.4244 13.1932 17.9456C14.1895 17.2277 15.454 16.2864 16.5874 15.3526C17.7506 14.3943 18.678 13.5219 19.0863 12.9344C20.381 11.0715 20.2899 8.4019 18.8808 7.05022C17.4211 5.64993 15.0377 5.64993 13.578 7.05022C13.2909 7.32558 13.0634 7.63181 12.8928 7.9553C12.7197 8.28348 12.3792 8.48889 12.0082 8.48889C11.6372 8.48889 11.2967 8.28348 11.1236 7.9553C10.9531 7.63181 10.7255 7.32557 10.4385 7.05021ZM3.7511 5.60689C5.98466 3.46436 9.58942 3.46436 11.823 5.60689C11.8865 5.6678 11.9482 5.72984 12.0082 5.79295C12.0682 5.72984 12.13 5.66781 12.1935 5.6069C14.427 3.46437 18.0318 3.46437 20.2653 5.6069C22.5495 7.79802 22.4432 11.6087 20.7287 14.0758C20.1432 14.9182 19.0101 15.948 17.8591 16.8962C16.6784 17.869 15.3749 18.8387 14.3624 19.5682C14.3286 19.5926 14.2951 19.6168 14.2618 19.6409C13.7559 20.0065 13.3045 20.3328 12.749 20.4746C12.2782 20.5947 11.7376 20.5949 11.2667 20.475C10.7111 20.3335 10.2597 20.0076 9.75379 19.6425C9.72051 19.6184 9.68699 19.5942 9.6532 19.5699C8.64485 18.8442 7.34797 17.8801 6.16942 16.9087C5.01892 15.9605 3.88707 14.9304 3.29018 14.0792C1.5251 11.5623 1.47287 7.79228 3.7511 5.60689Z" fill="#7C7E8F"/>
</svg>
