<svg width="24" height="24" viewBox="0 0 24 24" fill="none" xmlns="http://www.w3.org/2000/svg">
<path d="M9.6719 4.4899L8.93976 4.3272L8.93976 4.32721L9.6719 4.4899ZM8.53837 5.91614L8.91011 6.56753L8.91011 6.56753L8.53837 5.91614ZM8.46874 5.95641L8.84796 6.60348L8.84796 6.60347L8.46874 5.95641ZM6.66519 6.22636L6.89036 5.51096H6.89036L6.66519 6.22636ZM4.44531 7.09026L5.09483 7.46526L4.44531 7.09026ZM3.9726 7.90903L3.32308 7.53403H3.32308L3.9726 7.90903ZM4.33457 10.2647L4.84154 9.71201L4.33457 10.2647ZM5.00309 11.959L4.2531 11.9546L4.2531 11.9568L5.00309 11.959ZM5.00297 12L4.25297 11.9978V12H5.00297ZM4.70028 12.6393L5.15927 13.2324L5.15927 13.2324L4.70028 12.6393ZM4.18957 13.0345L3.73057 12.4413L3.73057 12.4413L4.18957 13.0345ZM3.68582 15.5942L3.0363 15.9692H3.0363L3.68582 15.5942ZM4.48776 16.9832L5.13728 16.6082H5.13728L4.48776 16.9832ZM6.74019 17.8445L6.97378 18.5572H6.97378L6.74019 17.8445ZM7.05892 17.7401L6.82533 17.0274H6.82533L7.05892 17.7401ZM8.26441 17.9191L8.66552 17.2854L8.66552 17.2854L8.26441 17.9191ZM8.94284 18.9208L8.19967 19.0217L8.94284 18.9208ZM8.99231 19.285L9.73549 19.1841L8.99231 19.285ZM14.433 19.4804L15.167 19.6345L14.433 19.4804ZM14.5018 19.1528L13.7678 18.9987L13.7678 18.9987L14.5018 19.1528ZM15.2615 18.1969L14.9118 17.5334H14.9118L15.2615 18.1969ZM16.4669 18.1107L16.1827 18.8048L16.1827 18.8048L16.4669 18.1107ZM16.8073 18.2501L17.0915 17.556L17.0915 17.556L16.8073 18.2501ZM19.2733 17.4074L18.6238 17.0324V17.0324L19.2733 17.4074ZM20.0757 16.0177L19.4262 15.6427V15.6427L20.0757 16.0177ZM19.6951 13.6347L20.1955 13.0761L20.1955 13.0761L19.6951 13.6347ZM19.6529 13.5969L19.1525 14.1556L19.1525 14.1556L19.6529 13.5969ZM19.003 12H19.753L19.753 11.9979L19.003 12ZM19.0029 11.959L19.7529 11.9568L19.7528 11.9547L19.0029 11.959ZM19.6714 10.2647L19.1644 9.71203L19.1644 9.71203L19.6714 10.2647ZM20.0334 7.90901L19.3838 8.28401L19.3838 8.28401L20.0334 7.90901ZM19.5607 7.09027L20.2102 6.71528V6.71527L19.5607 7.09027ZM17.3408 6.22636L17.5659 6.94176L17.5659 6.94176L17.3408 6.22636ZM15.5372 5.95641L15.158 6.60347L15.158 6.60348L15.5372 5.95641ZM15.4676 5.91615L15.8394 5.26478L15.8394 5.26477L15.4676 5.91615ZM14.3341 4.48991L15.0662 4.32722V4.32721L14.3341 4.48991ZM10.404 4.6526C10.5212 4.12522 10.989 3.75 11.5292 3.75V2.25C10.2859 2.25 9.20946 3.11352 8.93976 4.3272L10.404 4.6526ZM8.91011 6.56753C9.59077 6.17908 10.2089 5.53061 10.404 4.6526L8.93976 4.32721C8.85999 4.68616 8.5865 5.02513 8.16662 5.26475L8.91011 6.56753ZM8.84796 6.60347C8.8686 6.59137 8.88932 6.57939 8.91011 6.56753L8.16662 5.26475C8.14082 5.27948 8.11512 5.29434 8.08952 5.30934L8.84796 6.60347ZM6.44002 6.94176C7.29892 7.21209 8.17064 7.00042 8.84796 6.60348L8.08952 5.30934C7.67229 5.55386 7.24161 5.62151 6.89036 5.51096L6.44002 6.94176ZM5.09483 7.46526C5.36514 6.99708 5.92435 6.77945 6.44002 6.94176L6.89036 5.51096C5.70408 5.13758 4.41762 5.63822 3.79579 6.71526L5.09483 7.46526ZM4.62212 8.28403L5.09483 7.46526L3.79579 6.71526L3.32308 7.53403L4.62212 8.28403ZM4.84154 9.71201C4.44279 9.34626 4.35158 8.75262 4.62212 8.28403L3.32308 7.53403C2.70101 8.61148 2.91075 9.97643 3.8276 10.8174L4.84154 9.71201ZM5.75308 11.9633C5.75759 11.1785 5.50386 10.3195 4.84154 9.71201L3.8276 10.8174C4.09891 11.0663 4.25587 11.4725 4.2531 11.9546L5.75308 11.9633ZM5.75297 12.0022L5.75309 11.9611L4.2531 11.9568L4.25298 11.9978L5.75297 12.0022ZM5.15927 13.2324C5.55673 12.9249 5.75297 12.4574 5.75297 12H4.25297C4.25297 12.0179 4.24905 12.0313 4.24539 12.0391C4.24205 12.0463 4.23986 12.0472 4.24129 12.0461L5.15927 13.2324ZM4.64856 13.6276L5.15927 13.2324L4.24129 12.0461L3.73057 12.4413L4.64856 13.6276ZM4.33534 15.2192C4.02692 14.685 4.16073 14.0051 4.64856 13.6276L3.73057 12.4413C2.64926 13.2781 2.35267 14.7852 3.0363 15.9692L4.33534 15.2192ZM5.13728 16.6082L4.33534 15.2192L3.0363 15.9692L3.83824 17.3582L5.13728 16.6082ZM6.5066 17.1319C5.98376 17.3032 5.41238 17.0847 5.13728 16.6082L3.83824 17.3582C4.46818 18.4493 5.77656 18.9496 6.97378 18.5572L6.5066 17.1319ZM6.82533 17.0274L6.5066 17.1319L6.97378 18.5572L7.29251 18.4528L6.82533 17.0274ZM8.66552 17.2854C8.14931 16.9586 7.47855 16.8133 6.82533 17.0274L7.29251 18.4528C7.45021 18.4011 7.65843 18.4232 7.8633 18.5528L8.66552 17.2854ZM9.68602 18.8198C9.59428 18.1443 9.17456 17.6076 8.66552 17.2854L7.8633 18.5528C8.0678 18.6823 8.17777 18.8605 8.19967 19.0217L9.68602 18.8198ZM9.73549 19.1841L9.68602 18.8198L8.19967 19.0217L8.24913 19.3859L9.73549 19.1841ZM10.9559 20.25C10.3398 20.25 9.8184 19.7947 9.73549 19.1841L8.24913 19.3859C8.43303 20.7401 9.58934 21.75 10.9559 21.75V20.25ZM12.5614 20.25H10.9559V21.75H12.5614V20.25ZM13.699 19.3264C13.5861 19.8646 13.1114 20.25 12.5614 20.25V21.75C13.821 21.75 14.9083 20.8672 15.167 19.6345L13.699 19.3264ZM13.7678 18.9987L13.699 19.3264L15.167 19.6345L15.2358 19.3068L13.7678 18.9987ZM14.9118 17.5334C14.3745 17.8165 13.9092 18.3247 13.7678 18.9987L15.2358 19.3068C15.2694 19.1465 15.3942 18.9748 15.6111 18.8605L14.9118 17.5334ZM16.7511 17.4166C16.1208 17.1586 15.448 17.2509 14.9118 17.5334L15.6111 18.8605C15.8234 18.7486 16.0301 18.7423 16.1827 18.8048L16.7511 17.4166ZM17.0915 17.556L16.7511 17.4166L16.1827 18.8048L16.5232 18.9442L17.0915 17.556ZM18.6238 17.0324C18.3159 17.5657 17.6614 17.7894 17.0915 17.556L16.5232 18.9442C17.7874 19.4618 19.2397 18.9656 19.9228 17.7824L18.6238 17.0324ZM19.4262 15.6427L18.6238 17.0324L19.9228 17.7824L20.7252 16.3927L19.4262 15.6427ZM19.1947 14.1934C19.605 14.5609 19.7016 15.1657 19.4262 15.6427L20.7252 16.3927C21.3554 15.3011 21.1344 13.9171 20.1955 13.0761L19.1947 14.1934ZM19.1525 14.1556L19.1947 14.1934L20.1955 13.0761L20.1533 13.0383L19.1525 14.1556ZM18.253 12C18.253 12.7563 18.5087 13.5789 19.1525 14.1556L20.1533 13.0383C19.9032 12.8142 19.753 12.4438 19.753 12H18.253ZM18.2529 11.9611L18.253 12.0021L19.753 11.9979L19.7529 11.9568L18.2529 11.9611ZM19.1644 9.71203C18.5021 10.3195 18.2484 11.1785 18.2529 11.9633L19.7528 11.9547C19.7501 11.4725 19.907 11.0663 20.1784 10.8174L19.1644 9.71203ZM19.3838 8.28401C19.6544 8.75262 19.5632 9.34626 19.1644 9.71203L20.1784 10.8174C21.0952 9.97644 21.305 8.61148 20.6829 7.53401L19.3838 8.28401ZM18.9111 7.46527L19.3838 8.28401L20.6829 7.53401L20.2102 6.71528L18.9111 7.46527ZM17.5659 6.94176C18.0816 6.77946 18.6408 6.99709 18.9111 7.46528L20.2102 6.71527C19.5884 5.63823 18.3019 5.13758 17.1156 5.51096L17.5659 6.94176ZM15.158 6.60348C15.8353 7.00042 16.707 7.2121 17.5659 6.94176L17.1156 5.51096C16.7644 5.62152 16.3337 5.55387 15.9164 5.30934L15.158 6.60348ZM15.0958 6.56753C15.1166 6.5794 15.1374 6.59138 15.158 6.60347L15.9164 5.30935C15.8908 5.29434 15.8651 5.27948 15.8394 5.26478L15.0958 6.56753ZM13.6019 4.65261C13.7971 5.53062 14.4152 6.17909 15.0959 6.56754L15.8394 5.26477C15.4195 5.02514 15.146 4.68618 15.0662 4.32722L13.6019 4.65261ZM12.4767 3.75C13.017 3.75 13.4847 4.12523 13.6019 4.65261L15.0662 4.32721C14.7965 3.11352 13.72 2.25 12.4767 2.25V3.75ZM11.5292 3.75H12.4767V2.25H11.5292V3.75ZM14.253 12C14.253 13.2426 13.2456 14.25 12.003 14.25V15.75C14.0741 15.75 15.753 14.0711 15.753 12H14.253ZM12.003 9.75C13.2456 9.75 14.253 10.7574 14.253 12H15.753C15.753 9.92893 14.0741 8.25 12.003 8.25V9.75ZM9.75299 12C9.75299 10.7574 10.7604 9.75 12.003 9.75V8.25C9.93192 8.25 8.25299 9.92893 8.25299 12H9.75299ZM12.003 14.25C10.7604 14.25 9.75299 13.2426 9.75299 12H8.25299C8.25299 14.0711 9.93192 15.75 12.003 15.75V14.25Z" fill="#7C7E8F"/>
</svg>
